<?xml version="1.0" standalone="no"?>
<!DOCTYPE svg PUBLIC "-//W3C//DTD SVG 20010904//EN"
 "http://www.w3.org/TR/2001/REC-SVG-20010904/DTD/svg10.dtd">
<svg version="1.0" xmlns="http://www.w3.org/2000/svg"
 width="120.000000pt" height="120.000000pt" viewBox="0 0 120.000000 120.000000"
 preserveAspectRatio="xMidYMid meet">
<metadata>
Created by potrace 1.14, written by Peter Selinger 2001-2017
</metadata>
<g transform="translate(0.000000,120.000000) scale(0.100000,-0.100000)"
fill="#000000" stroke="none">
<path d="M509 1158 c-1 -18 0 -45 1 -60 l1 -28 -39 21 c-22 12 -52 32 -68 45
-15 13 -31 24 -36 24 -12 0 -1 -55 18 -92 12 -24 11 -32 -11 -75 -13 -26 -26
-65 -28 -85 -3 -20 -14 -49 -24 -65 -23 -32 -77 -137 -121 -233 -17 -36 -59
-126 -94 -200 -83 -173 -93 -207 -76 -268 11 -39 60 -97 100 -118 88 -46 184
-13 256 87 66 90 118 128 192 140 34 5 80 19 101 29 44 23 89 77 89 108 0 42
18 21 39 -45 12 -38 24 -78 26 -90 3 -13 8 -33 11 -45 3 -13 7 -36 9 -53 3
-16 7 -48 11 -70 3 -22 7 -49 8 -60 3 -19 12 -20 164 -23 l162 -2 0 502 0 503
-87 42 c-49 22 -110 46 -138 52 -27 6 -61 14 -75 17 -45 10 -193 11 -234 2
-49 -11 -82 1 -115 42 -30 39 -41 38 -42 -2z"/>
</g>
</svg>
